<svg width="16" height="16" viewBox="0 0 16 16" fill="none" xmlns="http://www.w3.org/2000/svg">
<path d="M2.02452 3.43117C4.1577 3.41925 6.07634 2.85272 7.64557 1.33203C9.20868 2.84079 11.1334 3.41925 13.3157 3.42521C13.3157 3.84862 13.3034 4.24221 13.3157 4.63579C13.3524 6.00739 13.3524 7.37899 13.1073 8.7327C12.672 11.1479 11.3848 12.9668 9.1106 14.0819C8.69377 14.2847 8.25243 14.4576 7.82334 14.6306C7.73752 14.6664 7.62105 14.6783 7.53524 14.6485C5.64725 14.0044 4.06575 12.9727 3.06659 11.2314C2.49039 10.2355 2.15938 9.13822 2.09195 7.99919C2.00613 6.52622 2.02452 5.04727 2 3.56833C2 3.52659 2.01226 3.49081 2.02452 3.43117Z" fill="#BB2A31"/>
<path d="M7.77965 10.7727C7.23514 10.7727 6.76758 10.6532 6.37695 10.4141C5.9887 10.175 5.68922 9.8447 5.47852 9.4233C5.27018 8.99953 5.16602 8.51184 5.16602 7.96023C5.16602 7.40625 5.27255 6.91738 5.48562 6.49361C5.69869 6.06747 5.99935 5.73603 6.38761 5.49929C6.77823 5.26018 7.23988 5.14062 7.77255 5.14062C8.21526 5.14062 8.60707 5.2223 8.94798 5.38565C9.29125 5.54664 9.56469 5.77509 9.76829 6.07102C9.97189 6.36458 10.0879 6.70786 10.1163 7.10085H8.88761C8.83789 6.83807 8.71952 6.61908 8.53249 6.44389C8.34783 6.26633 8.10044 6.17756 7.79031 6.17756C7.52752 6.17756 7.2967 6.24858 7.09783 6.39062C6.89897 6.5303 6.7439 6.73153 6.63264 6.99432C6.52373 7.2571 6.46928 7.57197 6.46928 7.93892C6.46928 8.31061 6.52373 8.63021 6.63264 8.89773C6.74154 9.16288 6.89424 9.36766 7.09073 9.51207C7.2896 9.65412 7.52279 9.72514 7.79031 9.72514C7.9797 9.72514 8.14897 9.68963 8.29812 9.61861C8.44963 9.54522 8.57629 9.43987 8.67809 9.30256C8.77989 9.16525 8.84973 8.99834 8.88761 8.80185H10.1163C10.0855 9.18774 9.97189 9.52983 9.77539 9.82812C9.57889 10.1241 9.31138 10.3561 8.97283 10.5241C8.63429 10.6899 8.23656 10.7727 7.77965 10.7727Z" fill="white"/>
</svg>
